# xmcd
#
# Track frame offsets:
#	150
#	24467
#	47286
#	77358
#	89248
#	104328
#	130389
#	155646
#	171905
#	183806
#	201589
#	228662
#
# Disc length: 3161 seconds
#
# Revision: 0
# Processed by: cddbd v1.5.1PL0 Copyright (c) Steve Scherf et al.
# Submitted via: dBpowerAMP V4.0
#
DISCID=9d0c570c
DTITLE=U.P. Wilson and Texas Trailer Trash - Texas Trailer Trash
DYEAR=1900
DGENRE=Blues
TTITLE0=Bad Luck Woman
TTITLE1=Fat City
TTITLE2=Walkin
TTITLE3=Jazzy P.
TTITLE4=I Want You
TTITLE5=Lonely Guy
TTITLE6=Satch Wig
TTITLE7=Last Time
TTITLE8=How I Feel
TTITLE9=The Good, The Bad, The Blues
TTITLE10=Take It Easy
TTITLE11=Don't Give Me That
EXTD=
EXTT0=
EXTT1=
EXTT2=
EXTT3=
EXTT4=
EXTT5=
EXTT6=
EXTT7=
EXTT8=
EXTT9=
EXTT10=
EXTT11=
PLAYORDER=
